<?xml version="1.0" standalone="no"?><!DOCTYPE svg PUBLIC "-//W3C//DTD SVG 1.1//EN" "http://www.w3.org/Graphics/SVG/1.1/DTD/svg11.dtd"><svg t="1628300404528" class="icon" viewBox="0 0 1041 1024" version="1.1" xmlns="http://www.w3.org/2000/svg" p-id="13125" xmlns:xlink="http://www.w3.org/1999/xlink" width="16.265625" height="16"><defs><style type="text/css"></style></defs><path d="M484.861237 602.436751a311.340904 311.340904 0 0 1 395.305234-127.81887V51.402553A50.554133 50.554133 0 0 0 830.285223 0H49.885051A50.78818 50.78818 0 0 0 0.003803 51.402553v831.305374a67.464022 67.464022 0 0 0 27.763815 53.801534 37.41825 37.41825 0 0 0 6.202243 7.050663L109.128176 1011.667776a50.086039 50.086039 0 0 0 65.796438 0l64.801739-58.511728 64.01183 58.102146a48.418455 48.418455 0 0 0 32.737312 12.258207 49.266875 49.266875 0 0 0 33.059126-12.375231l64.187366-58.102146 71.618355 58.102146a50.524877 50.524877 0 0 0 52.660555 7.196943 324.359764 324.359764 0 0 1-73.13966-415.63806zM165.445714 197.535593h396.709515a36.043224 36.043224 0 1 1 0 71.706123H165.445714a36.043224 36.043224 0 1 1 0-71.706123z m158.771574 502.908302H165.445714a36.043224 36.043224 0 1 1 0-71.706123h158.625294a36.043224 36.043224 0 1 1 0 71.735379z m-158.771574-215.410926a36.043224 36.043224 0 1 1 0-71.735379h396.709515a36.043224 36.043224 0 1 1 0 71.735379z" fill="#dd6572" p-id="13126"></path><path d="M781.369418 520.842146a251.60043 251.60043 0 1 0 260.377189 251.454151 256.018065 256.018065 0 0 0-260.377189-251.454151z m122.874629 289.837844a20.859431 20.859431 0 1 1 0 41.660351h-86.772893v48.652501a21.737107 21.737107 0 0 1-43.444958 0v-48.623246h-86.889916a20.859431 20.859431 0 1 1 0-41.66035h86.889916v-41.689606h-86.772892a20.830175 20.830175 0 0 1 0-41.66035h52.660555l-56.229771-53.947813a20.186546 20.186546 0 0 1 0-29.548423 22.234457 22.234457 0 0 1 30.689402 0l79.57595 76.53334 79.692973-76.53334a22.292968 22.292968 0 0 1 30.543122 0 20.186546 20.186546 0 0 1 0 29.548423l-55.937212 53.977069h55.995724a21.620083 21.620083 0 0 1 20.098778 9.82997 20.128034 20.128034 0 0 1 0 21.85413 21.766363 21.766363 0 0 1-20.098778 9.859226h-86.772893v41.80663h86.772893z" fill="#dd6572" p-id="13127"></path></svg>