<?xml version="1.0" standalone="no"?><!DOCTYPE svg PUBLIC "-//W3C//DTD SVG 1.1//EN" "http://www.w3.org/Graphics/SVG/1.1/DTD/svg11.dtd"><svg t="1628671457822" class="icon" viewBox="0 0 1024 1024" version="1.1" xmlns="http://www.w3.org/2000/svg" p-id="9667" xmlns:xlink="http://www.w3.org/1999/xlink" width="16" height="16"><defs><style type="text/css"></style></defs><path d="M164.97 512a317.05 437.03 0 1 0 634.1 0 317.05 437.03 0 1 0-634.1 0Z" fill="#F5F5FF" p-id="9668"></path><path d="M482.02 959.89c-44.75 0-88.11-12.05-128.88-35.82-39.07-22.78-74.09-55.3-104.1-96.66-61.22-84.38-94.93-196.4-94.93-315.4s33.71-231.02 94.93-315.4c30.01-41.37 65.03-73.89 104.1-96.66 40.77-23.77 84.13-35.82 128.88-35.82s88.11 12.05 128.88 35.82c39.07 22.78 74.09 55.3 104.1 96.66 61.22 84.38 94.93 196.4 94.93 315.4S776.22 743.02 715 827.4c-30.01 41.37-65.03 73.89-104.1 96.66-40.77 23.78-84.13 35.83-128.88 35.83z m0-874.06c-168.83 0-306.19 191.18-306.19 426.17s137.36 426.17 306.19 426.17S788.21 746.99 788.21 512 650.86 85.83 482.02 85.83z" fill="#635DAF" p-id="9669"></path><path d="M482.02 352.91m-209.54 0a209.54 209.54 0 1 0 419.08 0 209.54 209.54 0 1 0-419.08 0Z" fill="#F9E2DC" p-id="9670" data-spm-anchor-id="a313x.7781069.0.i25"></path><path d="M482.02 573.3c-58.87 0-114.22-22.93-155.84-64.55-41.63-41.63-64.55-96.97-64.55-155.84s22.93-114.22 64.55-155.84 96.97-64.55 155.84-64.55c58.87 0 114.22 22.93 155.84 64.55 41.63 41.63 64.55 96.97 64.55 155.84s-22.92 114.22-64.55 155.84c-41.62 41.63-96.97 64.55-155.84 64.55z m0-419.07c-109.55 0-198.68 89.13-198.68 198.68s89.13 198.68 198.68 198.68S680.7 462.46 680.7 352.91s-89.13-198.68-198.68-198.68z" fill="#635DAF" p-id="9671"></path><path d="M452.72 741.62c-13.28 0-26.47-0.82-39.58-2.47-37.54-4.72-74.27-16.37-109.14-34.61-27.79-14.54-54.47-33.26-79.3-55.67-42.25-38.13-64.35-73.42-65.27-74.9l18.45-11.45v0.01c0.41 0.66 21.94 34.79 61.93 70.74 36.74 33.03 97.15 74.48 176.26 84.37 116.93 14.62 242.36-41.5 372.78-166.8l15.05 15.66C682.78 682.85 564.84 741.62 452.72 741.62z" fill="#635DAF" p-id="9672"></path><path d="M468.06 645c-6.62 0-13.24-0.23-19.87-0.69-41.27-2.86-82.38-14.82-122.19-35.53-31.63-16.46-62.51-38.45-91.78-65.37-49.7-45.71-77.3-89.38-78.45-91.21l18.4-11.54c0.27 0.43 27.5 43.43 75.22 87.2 43.55 39.95 113.67 88.81 200.43 94.79 112.12 7.71 225.92-56.23 338.23-190.08l16.64 13.96C694.11 578.33 580.96 645 468.06 645zM461.71 875.18c-8.78 0-17.53-0.44-26.27-1.31-36.42-3.65-72.29-15.05-106.6-33.9-27.26-14.98-53.6-34.66-78.28-58.5-41.91-40.49-64.36-78.64-65.3-80.24l18.76-10.95c0.22 0.37 22.18 37.59 62.12 76.04 36.4 35.05 95.72 78.41 171.61 85.96 104.91 10.43 215.04-48.24 327.35-174.38l16.22 14.44C673.21 813.78 565.81 875.18 461.71 875.18z" fill="#635DAF" p-id="9673"></path><path d="M365.9 780.66a116.12 109.11 0 1 0 232.24 0 116.12 109.11 0 1 0-232.24 0Z" fill="#E5EAF0" p-id="9674"></path><path d="M482.02 900.63c-70.02 0-126.98-53.82-126.98-119.97S412 660.69 482.02 660.69c70.02 0 126.98 53.82 126.98 119.97s-56.96 119.97-126.98 119.97z m0-218.23c-58.04 0-105.26 44.08-105.26 98.25s47.22 98.25 105.26 98.25c58.04 0 105.26-44.08 105.26-98.25s-47.22-98.25-105.26-98.25z" fill="#635DAF" p-id="9675"></path><path d="M626.79 247.22a116.12 109.11 0 1 0 232.24 0 116.12 109.11 0 1 0-232.24 0Z" fill="#FFFFFF" p-id="9676"></path><path d="M742.91 367.19c-70.02 0-126.98-53.82-126.98-119.97s56.96-119.97 126.98-119.97 126.98 53.82 126.98 119.97-56.97 119.97-126.98 119.97z m0-218.22c-58.04 0-105.26 44.08-105.26 98.25s47.22 98.25 105.26 98.25c58.04 0 105.26-44.08 105.26-98.25s-47.22-98.25-105.26-98.25z" fill="#635DAF" p-id="9677"></path><path d="M428.41 780.66a53.8 50.55 0 1 0 107.6 0 53.8 50.55 0 1 0-107.6 0Z" fill="#A7AEC1" p-id="9678"></path><path d="M482.21 842.06c-35.65 0-64.66-27.55-64.66-61.41s29-61.41 64.66-61.41c35.65 0 64.65 27.55 64.65 61.41s-29 61.41-64.65 61.41z m0-101.09c-23.68 0-42.94 17.8-42.94 39.69s19.26 39.69 42.94 39.69c23.67 0 42.94-17.8 42.94-39.69s-19.27-39.69-42.94-39.69z" fill="#635DAF" p-id="9679"></path><path d="M789.51 222.4h-22.58c-0.21 0-0.39-0.18-0.39-0.41v-23.72c0-13.18-9.01-25.35-21.52-26.49-14.01-1.28-25.75 10.28-25.75 24.73v25.48c0 0.22-0.17 0.41-0.39 0.41H696.3c-12.55 0-24.13 9.47-25.22 22.6-1.22 14.71 9.79 27.04 23.54 27.04h24.26c0.21 0 0.39 0.18 0.39 0.41v23.72c0 13.18 9.01 25.35 21.52 26.49 14.01 1.28 25.75-10.28 25.75-24.73v-25.48c0-0.22 0.17-0.41 0.39-0.41h24.26c13.75 0 24.76-12.33 23.54-27.04-1.09-13.14-12.67-22.6-25.22-22.6z" fill="#FF9797" p-id="9680"></path><path d="M742.95 333.61c-1.04 0-2.09-0.05-3.15-0.14-17.6-1.61-31.39-17.99-31.39-37.3V282.9h-13.79c-9.4 0-18.5-4.04-24.98-11.07-6.81-7.4-10.23-17.5-9.38-27.73 1.51-18.26 17.34-32.56 36.04-32.56h12.11v-15.03c0-10.23 4.25-19.99 11.67-26.76 7.16-6.53 16.36-9.65 25.92-8.78 17.6 1.61 31.39 17.99 31.39 37.3v13.27h12.11c18.7 0 34.53 14.3 36.04 32.57 0.85 10.22-2.57 20.33-9.38 27.73-6.48 7.04-15.58 11.07-24.98 11.07H777.4v15.03c0 10.23-4.26 19.99-11.68 26.76-6.36 5.8-14.35 8.91-22.77 8.91zM696.3 233.26c-7.36 0-13.82 5.67-14.4 12.64-0.35 4.19 1.01 8.28 3.72 11.22 2.41 2.62 5.61 4.07 9 4.07h24.26c6.2 0 11.25 5.05 11.25 11.27v23.72c0 8.06 5.22 15.09 11.65 15.67 3.4 0.31 6.71-0.82 9.3-3.19 2.92-2.67 4.6-6.58 4.6-10.72v-25.48c0-6.21 5.04-11.27 11.25-11.27h24.26c3.39 0 6.59-1.44 9-4.07 2.71-2.94 4.06-7.03 3.72-11.22-0.58-6.97-7.04-12.64-14.4-12.64h-22.58c-6.2 0-11.25-5.05-11.25-11.27v-23.72c0-8.06-5.22-15.09-11.65-15.67-3.4-0.31-6.71 0.82-9.3 3.19-2.92 2.67-4.6 6.58-4.6 10.72v25.48c0 6.21-5.04 11.27-11.25 11.27H696.3z" fill="#635DAF" p-id="9681"></path><path d="M393.15 166.94s44.2 66.3 12.95 90.92" fill="#FFFFFF" p-id="9682"></path><path d="M406.11 268.72c-3.21 0-6.39-1.42-8.54-4.14-3.71-4.71-2.9-11.54 1.81-15.25 19.01-14.98-5.27-61.32-15.27-76.38-3.32-4.99-1.96-11.73 3.03-15.05 4.99-3.32 11.72-1.98 15.05 3.01 0.48 0.72 11.86 17.9 19.36 38.54 14.03 38.58 3 57.7-8.73 66.93a10.73 10.73 0 0 1-6.71 2.34z" fill="#635DAF" p-id="9683"></path><path d="M470.72 149.97s44.2 66.3 12.95 90.92" fill="#FFFFFF" p-id="9684"></path><path d="M483.68 251.75c-3.21 0-6.39-1.42-8.54-4.14-3.71-4.71-2.9-11.54 1.81-15.25 19.01-14.98-5.27-61.32-15.27-76.38-3.32-4.99-1.97-11.73 3.02-15.05 4.99-3.32 11.73-1.98 15.05 3.01 0.48 0.72 11.86 17.9 19.36 38.54 14.02 38.58 3 57.7-8.73 66.93a10.703 10.703 0 0 1-6.7 2.34z" fill="#635DAF" p-id="9685"></path><path d="M551.58 155.21s38.11 71.95 3.17 91.71" fill="#FFFFFF" p-id="9686"></path><path d="M554.76 257.78c-3.79 0-7.46-1.98-9.46-5.52-2.95-5.22-1.11-11.85 4.11-14.8 20.95-11.85 1.16-60.92-7.43-77.18-2.8-5.3-0.77-11.87 4.52-14.67 5.3-2.8 11.86-0.78 14.67 4.51 0.41 0.78 10.2 19.39 15.62 40.87 10.21 40.45-3.45 57.88-16.7 65.37-1.68 0.96-3.51 1.42-5.33 1.42z" fill="#635DAF" p-id="9687"></path><path d="M444.6 334.16h-0.74c-6.57 0-11.89-5.32-11.89-11.89v-12.84c0-6.57 5.32-11.89 11.89-11.89h0.74c6.57 0 11.89 5.32 11.89 11.89v12.84c0 6.56-5.33 11.89-11.89 11.89zM520.19 334.16h-0.74c-6.57 0-11.89-5.32-11.89-11.89v-12.84c0-6.57 5.32-11.89 11.89-11.89h0.74c6.57 0 11.89 5.32 11.89 11.89v12.84c0 6.56-5.32 11.89-11.89 11.89z" fill="#635DAF" p-id="9688"></path><path d="M339.24 394.36a41.32 38.83 0 1 0 82.64 0 41.32 38.83 0 1 0-82.64 0Z" fill="#FAC7BF" p-id="9689"></path><path d="M542.16 388.22a41.32 38.83 0 1 0 82.64 0 41.32 38.83 0 1 0-82.64 0Z" fill="#FAC7BF" p-id="9690"></path><path d="M528.29 495.5c-2.21 0-4.44-0.67-6.36-2.07-40.88-29.61-77.92-1.47-79.48-0.26-4.72 3.67-11.54 2.86-15.23-1.84-3.69-4.7-2.91-11.49 1.77-15.2 0.52-0.42 13.08-10.25 32.19-15.15 17.85-4.57 45.08-5.71 73.49 14.87 4.86 3.52 5.94 10.31 2.42 15.16a10.83 10.83 0 0 1-8.8 4.49z" fill="#635DAF" p-id="9691" data-spm-anchor-id="a313x.7781069.0.i24" class="selected"></path></svg>