<?xml version="1.0" standalone="no"?><!DOCTYPE svg PUBLIC "-//W3C//DTD SVG 1.1//EN" "http://www.w3.org/Graphics/SVG/1.1/DTD/svg11.dtd"><svg t="1628303114552" class="icon" viewBox="0 0 1024 1024" version="1.1" xmlns="http://www.w3.org/2000/svg" p-id="58457" xmlns:xlink="http://www.w3.org/1999/xlink" width="16" height="16"><defs><style type="text/css"></style></defs><path d="M319.30713627 499.2258396L93.93042954 499.2258396c-28.86847704-47.36005902-43.03822855-104.6243129-35.83517774-165.6589137 14.22602534-120.6623557 113.41428584-216.64300764 234.45930362-227.13245036 89.82429446-7.78829869 171.15123991 30.23030384 223.26081055 93.27950788 47.05618031-56.93786563 117.92744734-93.45958415 197.35233722-94.28118213 137.98344194-1.42935539 254.95423409 108.3608955 261.87591572 246.1867707 2.8587108 56.89284658-12.78541517 109.85777949-41.27123016 153.76262508L615.13868367 505.38219707c-7.91210111 0-14.96883994 4.99711651-17.59120062 12.47028169l-25.8634543 73.61743016L370.92149718 350.53911436c-11.16472875-13.39317258-32.97646696-5.503581-32.97646694 11.94130766l0 118.10752363C337.95628499 490.87480258 329.60524798 499.2258396 319.30713627 499.2258396zM570.89619507 678.40172829L394.23011938 466.40693939l0 70.44358588c0 10.29811169-8.35103702 18.64914872-18.64914871 18.64914871L140.16501188 555.49967398c1.50813877 1.38433633 2.97125845 2.82494649 4.51316152 4.17551852l371.1259378 371.12593781 369.14509884-369.14509883L655.01432273 561.65603148c-7.91210111 0-14.96883994 4.99711651-17.59120064 12.47028169l-34.61966291 98.52422926C598.00892848 686.30257465 580.15886822 689.52143796 570.89619507 678.40172829z" fill="#dbdbdb" p-id="58458"></path></svg>