<?xml version="1.0" standalone="no"?><!DOCTYPE svg PUBLIC "-//W3C//DTD SVG 1.1//EN" "http://www.w3.org/Graphics/SVG/1.1/DTD/svg11.dtd"><svg t="1628318158757" class="icon" viewBox="0 0 1024 1024" version="1.1" xmlns="http://www.w3.org/2000/svg" p-id="77506" xmlns:xlink="http://www.w3.org/1999/xlink" width="16" height="16"><defs><style type="text/css"></style></defs><path d="M870.4 17.066667H145.066667C95.573333 17.066667 54.613333 58.026667 54.613333 107.52v808.96c0 49.493333 40.96 90.453333 90.453334 90.453333H870.4c49.493333 0 90.453333-40.96 90.453333-90.453333V107.52C960.853333 58.026667 919.893333 17.066667 870.4 17.066667zM344.746667 163.84c47.786667-22.186667 104.106667-5.12 139.946666 37.546667 35.84-42.666667 92.16-59.733333 139.946667-37.546667 58.026667 27.306667 80.213333 104.106667 51.2 168.96-39.253333 87.04-191.146667 138.24-191.146667 138.24s-150.186667-51.2-191.146666-138.24c-29.013333-66.56-6.826667-141.653333 51.2-168.96z m479.573333 669.013333H191.146667v-90.453333h633.173333v90.453333z m0-182.613333H191.146667v-90.453333h633.173333v90.453333z m0 0" fill="#1296db" p-id="77507"></path></svg>