<?xml version="1.0" standalone="no"?><!DOCTYPE svg PUBLIC "-//W3C//DTD SVG 1.1//EN" "http://www.w3.org/Graphics/SVG/1.1/DTD/svg11.dtd"><svg t="1628670913024" class="icon" viewBox="0 0 1024 1024" version="1.1" xmlns="http://www.w3.org/2000/svg" p-id="1917" data-spm-anchor-id="a313x.7781069.0.i6" width="16" height="16" xmlns:xlink="http://www.w3.org/1999/xlink"><defs><style type="text/css"></style></defs><path d="M313.2 706.2c-49-24.5-12.2-24.5 110.2 0C607 742.9 639.1 545.3 735.5 527c64.3-12.3 85.7-0.2 64.3 36.1 6.1 58.6-7.7 100.2-41.3 124.7s-73.4 41.4-119.3 50.5H377.5l-64.3-32.1z" fill="#FFD800" p-id="1918"></path><path d="M809 563.7c0-101.4-82.4-183.8-183.7-183.8-39 0-75.7 12.5-106 34-25.4-43.9-81.9-59-125.8-33.7-41 23.7-56.9 74.3-38.4 116.6-51 17.1-87.9 65.3-87.9 122 0 71 57.7 128.7 128.6 128.7H625.6C726.7 747.4 809 665 809 563.7zM403.7 398c16.6-9.6 35.9-12.1 54.4-7.2 18.5 5 34 16.8 43.5 33.4 0.5 0.8 1.2 1.5 1.9 2.1-23.1 20.5-41.1 46.8-51.6 77-17.4-8.5-36.6-13.2-56.1-13.2-6.9 0-13.7 0.7-20.3 1.8-16.7-33.5-4.7-74.9 28.2-93.9z m221.6 331.1H395.8c-60.7 0-110.1-49.5-110.1-110.2 0-60.8 49.4-110.2 110.1-110.2 19.2 0 38.1 5.1 54.7 14.6 1.1 1.3 2.5 2.3 4.2 2.8 4.9 1.4 10-1.5 11.3-6.4 19.7-71.4 85.2-121.2 159.3-121.2 91.1 0 165.2 74.2 165.2 165.4 0.1 91-74 165.2-165.2 165.2z" fill="#d81e06" p-id="1919" data-spm-anchor-id="a313x.7781069.0.i7" class="selected"></path><path d="M297 430.1m-20.5 0a20.5 20.5 0 1 0 41 0 20.5 20.5 0 1 0-41 0Z" fill="#d81e06" p-id="1920" data-spm-anchor-id="a313x.7781069.0.i12" class="selected"></path><path d="M327.7 358.4m-20.5 0a20.5 20.5 0 1 0 41 0 20.5 20.5 0 1 0-41 0Z" fill="#d81e06" p-id="1921" data-spm-anchor-id="a313x.7781069.0.i11" class="selected"></path><path d="M399.4 317.4m-20.5 0a20.5 20.5 0 1 0 41 0 20.5 20.5 0 1 0-41 0Z" fill="#d81e06" p-id="1922" data-spm-anchor-id="a313x.7781069.0.i10" class="selected"></path><path d="M471 317.4m-20.5 0a20.5 20.5 0 1 0 41 0 20.5 20.5 0 1 0-41 0Z" fill="#d81e06" p-id="1923" data-spm-anchor-id="a313x.7781069.0.i8" class="selected"></path></svg>