<?xml version="1.0" standalone="no"?><!DOCTYPE svg PUBLIC "-//W3C//DTD SVG 1.1//EN" "http://www.w3.org/Graphics/SVG/1.1/DTD/svg11.dtd"><svg t="1628303329065" class="icon" viewBox="0 0 1024 1024" version="1.1" xmlns="http://www.w3.org/2000/svg" p-id="67428" xmlns:xlink="http://www.w3.org/1999/xlink" width="16" height="16"><defs><style type="text/css"></style></defs><path d="M511.3 619.5c155 0 280.7-143.3 280.7-319.5C792 131.4 674 8.6 511.3 8.6S230.7 131.4 230.7 300c0 176.2 125.5 319.5 280.6 319.5z" fill="#dbdbdb" p-id="67429"></path><path d="M987.6 949.5c0-11.7-2.9-99.3-81.7-179.2C823.8 687 691 644.7 511.3 644.7c-191.5 0-329.5 47.6-409.5 142.2-64.4 76.4-66.1 154.5-66.1 162.7v0.6c-2.3 14.8 1.8 29.3 11.2 41.1 10 11.7 25.8 19.3 42.9 19.3h844c15.8 0 30.6-6.4 41.6-18.3 9.3-11 14-26.9 12.2-42.8z" fill="#dbdbdb" p-id="67430"></path></svg>