<?xml version="1.0" standalone="no"?><!DOCTYPE svg PUBLIC "-//W3C//DTD SVG 1.1//EN" "http://www.w3.org/Graphics/SVG/1.1/DTD/svg11.dtd"><svg t="1628302753011" class="icon" viewBox="0 0 1024 1024" version="1.1" xmlns="http://www.w3.org/2000/svg" p-id="39465" xmlns:xlink="http://www.w3.org/1999/xlink" width="16" height="16"><defs><style type="text/css"></style></defs><path d="M512.768 938.666667a427.050667 427.050667 0 0 1-199.978667-49.92h-1.28a121.045333 121.045333 0 0 1-20.309333-11.306667 159.36 159.36 0 0 0-14.677333-8.533333 62.506667 62.506667 0 0 0-23.936-4.821334 58.624 58.624 0 0 0-17.877334 2.730667 942.421333 942.421333 0 0 1-96.469333 27.690667h-0.981333a18.944 18.944 0 0 1-16.682667-7.125334 33.237333 33.237333 0 0 1-4.48-19.328 800.170667 800.170667 0 0 1 29.866667-99.413333 52.736 52.736 0 0 0-3.84-42.282667l-8.533334-16.597333a420.565333 420.565333 0 0 1-48.213333-195.157333V512a426.666667 426.666667 0 1 1 427.392 426.666667z m195.925333-480.853334a54.613333 54.613333 0 1 0 54.613334 54.613334 54.656 54.656 0 0 0-54.613334-54.613334z m-196.650666 0a54.613333 54.613333 0 1 0 54.570666 54.613334 54.698667 54.698667 0 0 0-54.570666-54.613334z m-196.736 0a54.613333 54.613333 0 1 0 54.656 54.613334 54.656 54.656 0 0 0-54.656-54.613334z" fill="#dbdbdb" p-id="39466"></path></svg>