<?xml version="1.0" standalone="no"?><!DOCTYPE svg PUBLIC "-//W3C//DTD SVG 1.1//EN" "http://www.w3.org/Graphics/SVG/1.1/DTD/svg11.dtd"><svg t="1628301454713" class="icon" viewBox="0 0 1024 1024" version="1.1" xmlns="http://www.w3.org/2000/svg" p-id="33704" xmlns:xlink="http://www.w3.org/1999/xlink" width="16" height="16"><defs><style type="text/css"></style></defs><path d="M569.13 545.99a288.17 288.17 0 0 1 78.67 10.89 68.77 68.77 0 0 0-9.34 4.32l-16 8.6-15.06 8.75a67.23 67.23 0 0 0-31.08 38.92 68.82 68.82 0 0 0 3.64 49.7c0.26 0.53 0.52 1.06 0.91 1.77a2.74 2.74 0 0 1 0.23 1.3 5.29 5.29 0 0 1-1.37 3.63 7.94 7.94 0 0 1-5.05 2.29 67.85 67.85 0 0 0-62.32 68v34.45a68.68 68.68 0 0 0 62.72 68.07l1.8 0.65a4.1 4.1 0 0 1 2.79 1.32 5.7 5.7 0 0 1 1.43 3.9 2.61 2.61 0 0 1-0.32 1.45c-0.28 0.54-0.55 1.08-0.81 1.63a68.82 68.82 0 0 0-3.64 49.7 67.46 67.46 0 0 0 20.74 31.68H388.49c-158 0-281.82-1.32-281.82-83.64v-17.28c0-159.86 129.86-290.1 289.5-290.1h173z m-95.61-482c126.38 0 229.17 103.13 229.17 229.9S599.9 523.78 473.52 523.78 244.13 420.66 244.13 293.9 347.1 64 473.52 64z" fill="#d81e06" p-id="33705"></path><path d="M784.71 615.77a26.76 26.76 0 0 1 35-7.88l13.79 7.88 14.32 8.41a26.27 26.27 0 0 1 10.59 34.18 38.91 38.91 0 0 0-4.74 18.94c0 22.07 17.48 40.47 40.28 42.07 13.22 1 24.38 12.09 23.36 25.76v33.13a26.09 26.09 0 0 1-24.47 26.29l-0.51 0.51c-22.24 1.6-39.77 19.48-39.77 42.08a43 43 0 0 0 3.21 16.3l0.53 0.53c0.53 0.52 0.53 1.06 1.05 1.59a0.51 0.51 0 0 1 0.52 0.52c5.85 12.09 1 26.82-10.58 33.66l-28.11 16.28c-12.17 7.38-27 3.16-35-7.89a43.29 43.29 0 0 0-35.53-18.94 42 42 0 0 0-35.5 18.94c-7.43 11-22.81 14.73-35 7.89l-28.07-16.28a26.23 26.23 0 0 1-10.6-34.19 38.7 38.7 0 0 0 4.74-18.92 41.85 41.85 0 0 0-39.75-42.08l-0.53-0.53c-13.27-1-24.39-12.62-24.39-26.28v-32.09a26.06 26.06 0 0 1 24.35-26.28v-0.52c22.8-1.59 40.28-19.47 40.28-42.08a38.74 38.74 0 0 0-4.75-18.92 26.21 26.21 0 0 1 10.59-34.17l13.88-7.91 14.81-7.88a26.82 26.82 0 0 1 35 7.88 42.81 42.81 0 0 0 71 0z m-36.28 78.78a67.39 67.39 0 0 0-9.89 0.9 54.15 54.15 0 0 0-33.33 19.07 50.83 50.83 0 0 0-9.92 17.24 65.62 65.62 0 0 0-3.14 19.09 53.55 53.55 0 0 0 3.58 19.07 50.85 50.85 0 0 0 9.93 17.24 56.46 56.46 0 0 0 32.89 19.08 73.44 73.44 0 0 0 9.89 0.9 74.94 74.94 0 0 0 9.92-0.9 56.69 56.69 0 0 0 32.89-19.08 59.93 59.93 0 0 0 9.89-17.24 53.13 53.13 0 0 0 3.6-19.07 52.55 52.55 0 0 0-3.17-19.09 59.45 59.45 0 0 0-9.88-17.24c-8.59-9.54-20.26-16.79-33.33-19.07a66.6 66.6 0 0 0-9.93-0.9z" fill="#d81e06" p-id="33706"></path></svg>