<?xml version="1.0" standalone="no"?><!DOCTYPE svg PUBLIC "-//W3C//DTD SVG 1.1//EN" "http://www.w3.org/Graphics/SVG/1.1/DTD/svg11.dtd"><svg t="1628300669566" class="icon" viewBox="0 0 1024 1024" version="1.1" xmlns="http://www.w3.org/2000/svg" p-id="24831" xmlns:xlink="http://www.w3.org/1999/xlink" width="16" height="16"><defs><style type="text/css"></style></defs><path d="M676.968662 529.834138c-6.639833-4.805639-8.242929-11.331139-13.046135-13.167767-4.808071-1.781893-15.663633-3.264575-18.687379-5.636378-3.022529-2.371803-10.855562-29.243729-13.289397-39.980092-2.374236-10.735147-2.072591-28.059043-4.80199-38.496195-2.728182-10.442017-9.667228-22.364282-12.992618-34.288981-3.319309-11.921049-4.507643-28.352174-4.507643-28.352173-1.778244-9.492079-0.294347-24.734869 0.591127-30.964807 0.949938-6.284671 2.138272-23.90413-2.965363-33.752588-5.155936-9.844809-15.420372-14.592065-25.030433-17.557427-9.667228-3.023745-20.223578-7.771001-28.054178-11.981865-7.831817-4.151264-13.231014-11.565887-13.231014-21.708691 0-16.313143 2.965362-26.041186 2.965362-26.041186s1.843925-0.060815 4.506427-2.671016c2.550601-2.430186 5.758009-8.066564 6.349135-13.702942 0.649509-5.694761 2.433835-11.626702 0-12.216613-2.374236-0.594775-5.096337 1.482681-5.096336 1.482682s2.779267-19.10214 0.886689-26.397565c-3.023745-11.686301-8.832839-16.253544-18.091387-19.929231-3.557705-1.425515-12.870987-2.432619-12.870987-2.432619h-3.499322c-2.258687 0-3.798534 0.176365-3.798534 0.176365-3.854485 0.238397-8.481326 0.892771-11.922266 2.256254-9.312065 3.675687-15.066425 8.184546-18.091387 19.929231-1.899875 7.296641 0.889122 26.397565 0.889122 26.397565s-2.729398-2.077457-5.099985-1.543497c-2.432619 0.650726-0.594775 6.582667 0 12.277428 0.591126 5.636378 3.794886 11.272756 6.346702 13.702942 2.667367 2.6102 4.50521 2.671016 4.505211 2.671016s3.026178 9.728043 3.026178 25.979154c0 10.204836-5.455148 17.618243-13.286965 21.769507-7.829384 4.210863-17.854207 8.958119-27.464268 11.924698-9.668444 3.022529-19.929231 7.771001-25.031649 17.614594-5.160801 9.847242-3.977332 27.466701-3.026178 33.752588 0.889122 6.229937 2.37302 21.472727 0.594775 30.964806 0 0-1.187118 16.431125-4.510075 28.352174-3.321741 11.924698-10.262003 23.846964-12.990185 34.288981-2.729398 10.437152-2.431403 27.761047-4.805639 38.496194-2.431403 10.735147-10.262003 37.608289-13.285748 39.980093-3.026178 2.37302-13.879307 3.854485-18.68373 5.636378-4.804422 1.778244-6.407518 8.362128-13.051001 13.167766-6.644699 4.747256-9.729259 6.287104-8.540925 8.065348 1.245501 1.781893 5.751928 2.138272 11.149909 0 5.457581-2.072591 9.253682-7.176226 10.73758-6.87823 1.483898 0.29678-0.176365 7.771001-1.659046 12.874636-1.482681 5.041603-7.712618 13.93769-10.381202 19.632451-2.728182 5.636378-5.75436 14.000938-3.678119 15.180759 2.133407 1.189551 4.862805 0 4.862805 0s-1.83906 4.508859 0.889122 5.399198c2.729398 0.892771 6.349135-3.38134 6.349135-3.381341l4.506427-4.680358s-4.330062 7.233392-3.260926 10.135506c0.651942 2.015425 2.965362 2.079889 2.965363 2.07989s2.904547 0.121631 6.643482-5.931942c2.371803-3.793669 10.733931-19.93288 10.733931-19.932879s-3.142944 14.655313-3.142943 18.328567c0 3.682985 1.245501 4.569675 2.728182 4.866454 1.482681 0.300428 3.855701-4.744823 6.28832-12.815036 2.371803-8.062916 6.644699-16.131913 9.016502-22.063854 2.433835-5.989108 6.049923-10.738796 6.940262-17.320247 0.889122-6.5255 7.239474-19.690834 7.239474-19.690834s8.778105-14.298934 16.313142-33.101863c7.531388-18.802928 14.76843-42.058765 14.76843-42.058765s2.728182-13.346564 3.026178-19.335672c0.295563-5.931941 2.904547-14.117704 2.904547-14.117704s2.492218 15.244007 2.195439 24.202126c-0.294347 8.956903-2.432619 28.056611-3.320525 38.200632-0.889122 10.142805-5.399198 25.328429-9.074885 44.428136-3.737719 19.990046-10.379985 40.276872-9.1953 73.376302 1.187118 33.984903 2.313421 30.430847 3.797318 55.1645 1.541064 24.794469 3.439723 28.293791 4.210864 44.726132 0.651942 14.70883-5.397981 29.536859-6.345487 53.149075-0.891555 23.553833 8.779322 79.429874 10.557567 93.425947 1.83906 14.000938 1.83906 20.286826 0.650725 31.026838-1.244285 10.732715-2.726966 17.614594-2.726966 21.768291 0 4.147615-2.728182 9.250034-5.751927 13.109383-3.028611 3.909219-8.722155 11.445472-8.722155 14.058105 0 4.147615 1.483898 10.855562 11.7459 10.855562 11.210724 0 14.770862 1.125086 19.576501 0.29678 4.150048-0.713974 8.184546-0.122847 10.260787-5.2204 2.135839-5.040386 2.431403-10.738796 1.840276-18.211802-0.593559-7.415839-0.593559-20.819569 0.591126-26.521628 1.187118-5.687463 3.321741-7.170144 2.077457-11.921049-1.184685-4.80199-3.855701-21.767074-3.618521-31.313888 0.356379-9.552895 13.465762-58.549489 14.060538-70.475403 0.591126-11.980648-0.594775-25.501144-0.594775-33.748939 0-10.972328 3.442156-18.211802 5.871125-25.626425 2.433835-7.473005 5.460013-23.130557 6.942695-44.603284 1.541064-21.473944 5.812743-23.311787 8.242929-47.815558 2.371803-24.433225 4.034499-42.409062 4.034499-42.409063s3.73407 0.597208 5.575562 0.597208 5.514747-0.597208 5.514748-0.597208 1.661479 17.975838 4.095314 42.409063c2.427754 24.503771 6.701865 26.340398 8.241713 47.815558 1.483898 21.472727 4.507643 37.130279 6.940261 44.603284 2.432619 7.415839 5.874775 14.655313 5.874775 25.626425 0 8.247795-1.246717 21.768291-0.591126 33.748939 0.591126 11.927131 13.699294 60.922509 14.054456 70.475403 0.300428 9.546813-2.435052 26.511898-3.616088 31.313888-1.246717 4.750905 0.890339 6.233586 2.073807 11.921049 1.250366 5.702059 1.250366 19.105789 0.591127 26.521628-0.591126 7.473005-0.290698 13.171415 1.841492 18.211802 2.137056 5.097553 6.111955 4.506427 10.264436 5.2204 4.80199 0.828307 8.422943-0.29678 19.572852-0.29678 10.260787 0 11.743468-6.707947 11.743468-10.855562 0-2.611416-5.689896-10.148886-8.719723-14.058105-3.023745-3.85935-5.694761-8.961768-5.694761-13.109383 0-4.153697-1.539848-11.035576-2.726965-21.768291-1.189551-10.740013-1.246717-17.0259 0.595991-31.026838 1.772163-13.996073 11.446688-69.870898 10.553917-93.425947-0.891555-23.612216-6.997428-38.498627-6.347919-53.149075 0.776005-16.433557 2.733047-19.93288 4.216945-44.726132 1.539848-24.733653 2.607768-21.178381 3.852052-55.1645 1.129952-33.09943-5.457581-53.386255-9.251249-73.376302-3.619737-19.099708-8.12738-34.285331-9.077318-44.428136-0.885473-10.144021-2.965362-29.243729-3.319309-38.200632-0.300428-8.958119 2.190573-24.143743 2.190574-24.143743s2.613849 8.12738 2.909412 14.059321c0.300428 5.989108 3.080912 19.335672 3.080912 19.335672s7.24069 23.255837 14.772078 42.058765c7.536254 18.801712 16.25476 33.101862 16.25476 33.101863s6.349135 13.165334 7.239474 19.690834c0.949938 6.581451 4.566026 11.331139 6.941478 17.320247 2.432619 5.996406 6.638617 14.000938 9.07002 22.063854 2.376669 8.070213 4.750905 13.115465 6.233586 12.815036 1.541064-0.29678 2.720884-1.183469 2.720885-4.866454 0-3.674471-3.080912-18.328567-3.080912-18.328567s8.365777 16.13921 10.675548 19.932879c3.794886 6.053572 6.644699 5.931941 6.644699 5.931942s2.31707-0.064464 3.023745-2.07989c1.007104-2.902114-3.319309-10.135507-3.319309-10.135506l4.506427 4.680358s3.620953 4.275328 6.349135 3.381341c2.729398-0.890339 0.88669-5.399198 0.88669-5.399198s2.734264 1.189551 4.808071 0c2.132191-1.181036-0.891555-9.545597-3.620953-15.180759-2.668583-5.694761-8.897304-14.590848-10.381201-19.632451-1.539848-5.103635-3.202543-12.577856-1.661479-12.874636 1.482681-0.297996 5.283648 4.805639 10.680413 6.87823 5.457581 2.138272 9.964007 1.840276 11.209509 0 1.184685-1.777028-1.897443-3.31566-8.545791-8.064131z" p-id="24832" fill="#eeb173"></path></svg>