<?xml version="1.0" standalone="no"?><!DOCTYPE svg PUBLIC "-//W3C//DTD SVG 1.1//EN" "http://www.w3.org/Graphics/SVG/1.1/DTD/svg11.dtd"><svg t="1628301370887" class="icon" viewBox="0 0 1024 1024" version="1.1" xmlns="http://www.w3.org/2000/svg" p-id="30362" xmlns:xlink="http://www.w3.org/1999/xlink" width="16" height="16"><defs><style type="text/css"></style></defs><path d="M1001.434971 495.954015L556.019984 50.538029C526.071985 20.646029 465.515986-2.52997 422.245988 0.22203L103.887997 20.646029a92.154997 92.154997 0 0 0-83.346998 83.346998L0.228 422.186018c-2.753 42.773999 19.762999 103.329997 50.315999 133.827996l445.359986 445.359987a79.272998 79.272998 0 0 0 111.312997-0.826l393.446989-393.446989 0.826-0.826a78.171998 78.171998 0 0 0-0.055-110.320997zM213.108994 215.580024c-48.003999 36.223999-101.182997-2.532-92.209998-49.544999a53.399998 53.399998 0 0 1 42.278999-41.893999c47.342999-8.808 86.209997 43.875999 49.929999 91.439998z m449.763987 384.969988a44.062999 44.062999 0 1 1-62.261999 62.371999l-74.649997-74.537998-74.482998 74.537998a44.700999 44.700999 0 0 1-62.646998 0.276 44.039999 44.039999 0 0 1 0-62.592999l74.757997-74.593997-74.482997-74.482998a44.700999 44.700999 0 0 1-0.275-62.647998 44.039999 44.039999 0 0 1 62.591998 0l74.538998 74.758997L600.609982 389.100019a44.700999 44.700999 0 0 1 62.591999-0.275 44.039999 44.039999 0 0 1 0 62.592998l-74.868998 74.592998z" fill="#d81e06" p-id="30363"></path></svg>