<?xml version="1.0" standalone="no"?><!DOCTYPE svg PUBLIC "-//W3C//DTD SVG 1.1//EN" "http://www.w3.org/Graphics/SVG/1.1/DTD/svg11.dtd"><svg t="1628671151245" class="icon" viewBox="0 0 1024 1024" version="1.1" xmlns="http://www.w3.org/2000/svg" p-id="5307" xmlns:xlink="http://www.w3.org/1999/xlink" width="16" height="16"><defs><style type="text/css"></style></defs><path d="M733.08 763.05V222.56c0-58.58 43.77-106.07 97.77-106.07H365.9c-58.28 0-105.53 51.26-105.53 114.48v638.14h570.47c-53.99 0.01-97.76-47.48-97.76-106.06z" fill="#F5F5FF" p-id="5308"></path><path d="M830.85 880.56H248.93V230.98c0-69.44 52.47-125.93 116.97-125.93h464.95v22.89c-47.6 0-86.33 42.45-86.33 94.63v540.49c0 52.18 38.73 94.63 86.33 94.63v22.87z m-559.04-22.89h494.34c-26.99-21.42-44.52-55.86-44.52-94.63V222.56c0-38.77 17.54-73.21 44.52-94.63H365.9c-51.88 0-94.09 46.22-94.09 103.04v626.7z" fill="#635DAF" p-id="5309"></path><path d="M468.84 781.96c0-44.02 31.2-80.32 71.71-86.22 0.43-0.06 0.44-0.67 0.01-0.67-46.15-0.13-347.39-0.27-347.39-0.27-47.83 0-86.25 42.2-83.11 92.96 2.87 46.33 41.6 81.36 85.96 81.36 0 0 348.55-0.17 350.43-0.3-43.33-3.07-77.61-40.73-77.61-86.86z" fill="#C9C1F5" p-id="5310"></path><path d="M196.03 880.56c-51.42 0-94.19-40.45-97.39-92.09-1.73-27.99 8.04-55.5 26.81-75.47 17.97-19.12 42.02-29.64 67.71-29.64 3.02 0 301.79 0.14 347.42 0.27 6.12 0.01 11.26 4.8 11.7 10.9 0.44 6.13-3.99 11.64-10.08 12.53-35.31 5.14-61.93 37.34-61.93 74.9 0 39.65 29.42 72.79 66.98 75.45v22.83c-1.5 0.1-119.67 0.21-351.22 0.32z m-2.86-174.32c-19.31 0-37.43 7.97-51.03 22.43-14.47 15.39-21.99 36.67-20.65 58.38 2.45 39.6 35.19 70.62 74.54 70.62 83.43-0.04 219.8-0.12 295.4-0.2-20.83-18.16-34.03-45.4-34.03-75.52 0-23.84 8.29-46.84 23.35-64.77 3.26-3.89 6.8-7.48 10.56-10.75-98.69-0.1-295.7-0.19-298.14-0.19z" fill="#635DAF" p-id="5311"></path><path d="M914.11 228.56v-10.58c0-56.04-40.54-101.48-90.54-101.48-50.01 0-90.55 45.43-90.55 101.48v10.58h181.09z" fill="#C9C1F5" p-id="5312"></path><path d="M925.55 240H721.58v-22.03c0-62.27 45.75-112.92 101.99-112.92s101.99 50.66 101.99 112.92V240z m-181.08-22.89h158.19c-0.41-49.25-35.73-89.18-79.1-89.18-43.36 0.01-78.68 39.93-79.09 89.18z" fill="#635DAF" p-id="5313"></path><path d="M732.31 769.33m-138.18 0a138.18 138.18 0 1 0 276.36 0 138.18 138.18 0 1 0-276.36 0Z" fill="#FFFFFF" p-id="5314"></path><path d="M732.31 918.95c-82.5 0-149.62-67.12-149.62-149.62s67.12-149.62 149.62-149.62 149.62 67.12 149.62 149.62-67.12 149.62-149.62 149.62z m0-276.35c-69.88 0-126.74 56.85-126.74 126.73s56.85 126.73 126.74 126.73c69.88 0 126.74-56.85 126.74-126.73-0.01-69.88-56.86-126.73-126.74-126.73z" fill="#635DAF" p-id="5315"></path><path d="M783.99 743.12h-25.05c-0.24 0-0.43-0.19-0.43-0.43v-25.05c0-13.92-10-26.76-23.87-27.97-15.53-1.35-28.56 10.86-28.56 26.11v26.91c0 0.24-0.19 0.43-0.43 0.43H680.6c-13.92 0-26.77 10-27.97 23.87-1.35 15.53 10.86 28.56 26.11 28.56h26.91c0.24 0 0.43 0.19 0.43 0.43v25.05c0 13.92 10 26.77 23.87 27.97 15.53 1.35 28.56-10.86 28.56-26.11v-26.91c0-0.24 0.19-0.43 0.43-0.43h26.91c15.25 0 27.46-13.03 26.11-28.56-1.2-13.87-14.04-23.87-27.97-23.87z" fill="#FF9797" p-id="5316"></path><path d="M732.24 860.53c-1.09 0-2.18-0.05-3.27-0.14-19.24-1.67-34.32-18.97-34.32-39.37v-14.03h-15.89c-10.53 0-20.64-4.45-27.76-12.21-7.11-7.76-10.67-18.25-9.75-28.78 1.67-19.24 18.97-34.32 39.37-34.32h14.03v-15.89c0-10.53 4.45-20.64 12.21-27.76 7.76-7.11 18.25-10.67 28.78-9.75 19.25 1.67 34.32 18.96 34.32 39.37v14.03h14.03c20.4 0 37.7 15.08 39.37 34.32 0.92 10.53-2.64 21.02-9.75 28.78a37.757 37.757 0 0 1-27.76 12.21h-15.89v15.89c0 10.53-4.45 20.64-12.21 27.76-6.95 6.37-16.1 9.89-25.51 9.89z m-51.62-105.97c-8.49 0-15.93 6.02-16.57 13.42-0.37 4.22 0.99 8.24 3.82 11.33s6.7 4.79 10.89 4.79h26.91c6.55 0 11.87 5.33 11.87 11.87v25.05c0 8.49 6.02 15.93 13.41 16.57 4.22 0.36 8.25-0.99 11.33-3.82 3.09-2.83 4.79-6.7 4.79-10.89v-26.91c0-6.55 5.33-11.87 11.87-11.87h26.91c4.19 0 8.06-1.7 10.89-4.79s4.19-7.11 3.82-11.33c-0.64-7.4-8.08-13.42-16.57-13.42h-25.05c-6.55 0-11.87-5.33-11.87-11.87v-25.05c0-8.49-6.02-15.93-13.41-16.57-4.23-0.37-8.25 0.99-11.33 3.82-3.09 2.83-4.79 6.7-4.79 10.89v26.91c0 6.55-5.33 11.87-11.87 11.87h-25.05z" fill="#635DAF" p-id="5317"></path><path d="M396.11 338.74c-6.72 0-13.07-2.77-17.86-7.81l-45.71-47.99c-9.7-10.18-10.07-26.25-0.85-36.59 4.6-5.16 11.14-8.12 17.92-8.12 6.72 0 13.07 2.77 17.86 7.81l27.29 28.65 59.71-66.94c4.6-5.16 11.14-8.12 17.92-8.12 6.72 0 13.07 2.77 17.86 7.81 9.7 10.18 10.07 26.25 0.85 36.59l-75.97 85.17c-0.24 0.35-0.61 0.87-1.1 1.43-4.6 5.15-11.13 8.11-17.92 8.11z" fill="#93D2F8" p-id="5318"></path><path d="M472.39 208.92c3.98 0 8.01 1.64 11.14 4.92 6.29 6.6 6.58 17.34 0.64 23.99l-76.35 85.59c-0.25 0.33-0.45 0.69-0.73 1-2.98 3.34-6.96 5.01-10.99 5.01-3.98 0-8.01-1.64-11.14-4.92l-45.71-47.99c-6.29-6.6-6.58-17.34-0.64-23.99 2.98-3.34 6.97-5.02 10.99-5.01 3.98 0 8.01 1.64 11.14 4.92l30.08 31.58c1.14 1.2 2.61 1.8 4.07 1.8 1.47 0 2.93-0.61 4.02-1.83l62.49-70.06c2.98-3.34 6.97-5.01 10.99-5.01m0-18.58c-9.43 0-18.49 4.09-24.86 11.23l-53 59.42-20.34-21.35c-6.57-6.89-15.3-10.69-24.59-10.69-9.43 0-18.49 4.09-24.86 11.23-12.42 13.92-11.95 35.52 1.06 49.18l45.71 47.99c6.57 6.89 15.3 10.69 24.59 10.69 9.43 0 18.49-4.09 24.86-11.23 0.6-0.67 1.07-1.28 1.46-1.83l75.61-84.76c12.42-13.92 11.95-35.52-1.06-49.18-6.55-6.91-15.29-10.7-24.58-10.7z" fill="#635DAF" p-id="5319"></path><path d="M396.11 475.44c-6.72 0-13.07-2.77-17.86-7.81l-45.71-47.99c-9.7-10.18-10.07-26.25-0.85-36.59 4.6-5.16 11.14-8.12 17.92-8.12 6.72 0 13.07 2.77 17.86 7.81l27.29 28.65 59.71-66.94c4.6-5.16 11.14-8.12 17.92-8.12 6.72 0 13.07 2.77 17.86 7.81 9.7 10.18 10.07 26.25 0.85 36.59l-75.97 85.17c-0.24 0.35-0.61 0.87-1.1 1.43-4.6 5.15-11.13 8.11-17.92 8.11z" fill="#93D2F8" p-id="5320"></path><path d="M472.39 345.62c3.98 0 8.01 1.64 11.14 4.92 6.29 6.6 6.58 17.34 0.64 23.99l-76.35 85.59c-0.25 0.33-0.45 0.69-0.73 1-2.98 3.34-6.97 5.01-10.99 5.01-3.98 0-8.01-1.64-11.14-4.92l-45.71-47.99c-6.29-6.6-6.58-17.34-0.64-23.99 2.98-3.34 6.97-5.02 10.99-5.01 3.98 0 8.01 1.64 11.14 4.92l30.08 31.58c1.14 1.2 2.61 1.8 4.07 1.8 1.47 0 2.93-0.61 4.02-1.83l62.49-70.06c2.98-3.34 6.97-5.01 10.99-5.01m0-18.58c-9.43 0-18.49 4.09-24.86 11.23l-53 59.42-20.34-21.35c-6.57-6.89-15.3-10.69-24.59-10.69-9.43 0-18.49 4.09-24.86 11.23-12.42 13.92-11.95 35.52 1.06 49.18l45.71 47.99c6.57 6.89 15.3 10.69 24.59 10.69 9.43 0 18.49-4.09 24.86-11.23 0.6-0.67 1.07-1.28 1.46-1.83l75.61-84.76c12.42-13.92 11.95-35.52-1.06-49.18-6.55-6.91-15.29-10.7-24.58-10.7z" fill="#635DAF" p-id="5321"></path><path d="M396.11 612.14c-6.72 0-13.07-2.77-17.86-7.81l-45.71-47.99c-9.7-10.18-10.07-26.25-0.85-36.59 4.6-5.16 11.14-8.12 17.92-8.12 6.72 0 13.07 2.77 17.86 7.81l27.29 28.65 59.71-66.94c4.6-5.16 11.14-8.12 17.92-8.12 6.72 0 13.07 2.77 17.86 7.81 9.7 10.18 10.07 26.25 0.85 36.59l-75.97 85.17c-0.24 0.35-0.61 0.87-1.11 1.43-4.59 5.15-11.12 8.11-17.91 8.11z" fill="#93D2F8" p-id="5322"></path><path d="M472.39 482.32c3.98 0 8.01 1.64 11.14 4.92 6.29 6.6 6.58 17.34 0.64 23.99l-76.35 85.59c-0.25 0.33-0.45 0.69-0.73 1-2.98 3.34-6.97 5.01-10.99 5.01-3.98 0-8.01-1.64-11.14-4.92l-45.71-47.99c-6.29-6.6-6.58-17.34-0.64-23.99 2.98-3.34 6.97-5.02 10.99-5.02 3.98 0 8.01 1.64 11.14 4.92l30.08 31.58c1.14 1.2 2.61 1.8 4.07 1.8 1.47 0 2.93-0.61 4.02-1.83l62.49-70.06c2.98-3.32 6.97-5 10.99-5m0-18.58c-9.43 0-18.49 4.09-24.86 11.23l-53 59.42-20.34-21.35c-6.57-6.89-15.3-10.69-24.59-10.69-9.43 0-18.49 4.09-24.86 11.23-12.42 13.92-11.95 35.52 1.06 49.18l45.71 47.99c6.57 6.89 15.3 10.69 24.59 10.69 9.43 0 18.49-4.09 24.86-11.23 0.6-0.67 1.07-1.28 1.46-1.83l75.61-84.76c12.42-13.92 11.95-35.52-1.06-49.18-6.55-6.9-15.29-10.7-24.58-10.7z" fill="#635DAF" p-id="5323"></path><path d="M672.78 208.96H556.6c-6.07 0-10.99-4.92-10.99-10.99v-1.09c0-6.07 4.92-10.99 10.99-10.99h116.18c6.07 0 10.99 4.92 10.99 10.99v1.09c-0.01 6.07-4.92 10.99-10.99 10.99zM644.72 259.66H556.6c-6.07 0-10.99-4.92-10.99-10.99v-1.09c0-6.07 4.92-10.99 10.99-10.99h88.13c6.07 0 10.99 4.92 10.99 10.99v1.09c-0.01 6.08-4.93 10.99-11 10.99zM628.14 310.37H556.6c-6.07 0-10.99-4.92-10.99-10.99v-1.09c0-6.07 4.92-10.99 10.99-10.99h71.55c6.07 0 10.99 4.92 10.99 10.99v1.09c-0.01 6.07-4.93 10.99-11 10.99zM672.78 370.6H556.6c-6.07 0-10.99-4.92-10.99-10.99v-1.09c0-6.07 4.92-10.99 10.99-10.99h116.18c6.07 0 10.99 4.92 10.99 10.99v1.09c-0.01 6.07-4.92 10.99-10.99 10.99zM644.72 421.31H556.6c-6.07 0-10.99-4.92-10.99-10.99v-1.09c0-6.07 4.92-10.99 10.99-10.99h88.13c6.07 0 10.99 4.92 10.99 10.99v1.09c-0.01 6.07-4.93 10.99-11 10.99zM628.14 472.02H556.6c-6.07 0-10.99-4.92-10.99-10.99v-1.09c0-6.07 4.92-10.99 10.99-10.99h71.55c6.07 0 10.99 4.92 10.99 10.99v1.09c-0.01 6.07-4.93 10.99-11 10.99zM672.78 532.24H556.6c-6.07 0-10.99-4.92-10.99-10.99v-1.09c0-6.07 4.92-10.99 10.99-10.99h116.18c6.07 0 10.99 4.92 10.99 10.99v1.09c-0.01 6.08-4.92 10.99-10.99 10.99zM309.16 761.91H120.88c-6.07 0-10.99-4.92-10.99-10.99v-1.09c0-6.07 4.92-10.99 10.99-10.99h188.28c6.07 0 10.99 4.92 10.99 10.99v1.09c0 6.07-4.92 10.99-10.99 10.99zM462.11 824.85H254.14c-6.07 0-10.99-4.92-10.99-10.99v-1.09c0-6.07 4.92-10.99 10.99-10.99h207.97c6.07 0 10.99 4.92 10.99 10.99v1.09c-0.01 6.08-4.92 10.99-10.99 10.99zM644.72 582.95H556.6c-6.07 0-10.99-4.92-10.99-10.99v-1.09c0-6.07 4.92-10.99 10.99-10.99h88.13c6.07 0 10.99 4.92 10.99 10.99v1.09c-0.01 6.07-4.93 10.99-11 10.99zM628.14 633.66H556.6c-6.07 0-10.99-4.92-10.99-10.99v-1.09c0-6.07 4.92-10.99 10.99-10.99h71.55c6.07 0 10.99 4.92 10.99 10.99v1.09c-0.01 6.07-4.93 10.99-11 10.99z" fill="#635DAF" p-id="5324"></path></svg>