<?xml version="1.0" standalone="no"?><!DOCTYPE svg PUBLIC "-//W3C//DTD SVG 1.1//EN" "http://www.w3.org/Graphics/SVG/1.1/DTD/svg11.dtd"><svg t="1628671078727" class="icon" viewBox="0 0 1024 1024" version="1.1" xmlns="http://www.w3.org/2000/svg" p-id="5064" data-spm-anchor-id="a313x.7781069.0.i19" xmlns:xlink="http://www.w3.org/1999/xlink" width="16" height="16"><defs><style type="text/css"></style></defs><path d="M967.111 312.889V967.11c0 28.757-26.994 56.889-56.889 56.889H113.778c-29.668 0-56.89-28.7-56.89-56.889V56.89C56.889 29.924 85.192 0 113.779 0h796.444c28.587 0 56.89 26.368 56.89 56.889V256h-56.89v56.889h56.89z m-56.889-256H113.778V256h796.444V56.889z m0 256H113.778V256h-56.89v56.889h56.89V967.11h796.444V312.89zM625.778 910.222H398.222V768H256V540.444h142.222V398.222h227.556v142.222H768V768H625.778v142.222z m85.333-199.11v-113.78H568.89V455.111H455.11v142.222H312.89v113.778h142.22v142.222h113.78V711.111h142.22z" p-id="5065" data-spm-anchor-id="a313x.7781069.0.i18" class="selected" fill="#d81e06"></path></svg>