<?xml version="1.0" standalone="no"?><!DOCTYPE svg PUBLIC "-//W3C//DTD SVG 1.1//EN" "http://www.w3.org/Graphics/SVG/1.1/DTD/svg11.dtd"><svg t="1628671357468" class="icon" viewBox="0 0 1024 1024" version="1.1" xmlns="http://www.w3.org/2000/svg" p-id="7084" xmlns:xlink="http://www.w3.org/1999/xlink" width="16" height="16"><defs><style type="text/css"></style></defs><path d="M422.4 422.4m-64 0a64 64 0 1 0 128 0 64 64 0 1 0-128 0Z" fill="#1afa29" p-id="7085"></path><path d="M396.8 153.6l-5.12 0.128A102.4 102.4 0 0 0 294.4 256l-0.0256 38.3744-38.4 0.0256A102.4 102.4 0 0 0 153.6 396.8v76.8l0.128 5.12A102.4 102.4 0 0 0 256 576l38.3744-0.0512L294.4 614.4a102.4 102.4 0 0 0 102.4 102.4h38.7328a25.6 25.6 0 0 0 25.5744-26.9312 217.6 217.6 0 0 1 228.7872-228.7872A25.6 25.6 0 0 0 716.8 435.5584V396.8l-0.128-5.12A102.4 102.4 0 0 0 614.4 294.4l-38.4256-0.0256L576 256a102.4 102.4 0 0 0-102.4-102.4h-76.8z m76.8 51.2a51.2 51.2 0 0 1 51.2 51.2v63.9744a25.6 25.6 0 0 0 25.6 25.6l64 0.0256 3.8144 0.128A51.2 51.2 0 0 1 665.6 396.8l-0.0256 13.1072-1.6896 0.0768c-134.4512 7.168-242.688 113.1264-253.4144 246.6048l-0.5632 9.0112H396.8a51.2 51.2 0 0 1-51.2-51.2v-64.0256a25.6 25.6 0 0 0-25.6-25.6L256 524.8a51.2 51.2 0 0 1-51.2-51.2v-76.8a51.2 51.2 0 0 1 51.2-51.2l64-0.0256a25.6 25.6 0 0 0 25.6-25.6V256a51.2 51.2 0 0 1 51.2-51.2h76.8zM673.3824 640.512a25.6 25.6 0 0 1 12.928 49.4336l-2.8928 0.768c-34.2784 6.8352-86.0672 54.656-150.7072 143.5392a25.6 25.6 0 0 1-41.4208-30.1056c71.8848-98.816 131.0464-153.4464 182.0928-163.6608z" fill="#1afa29" p-id="7086"></path><path d="M492.8768 656.9216c-14.2336 48.64-15.5392 99.5584-9.3952 146.56 1.28 9.7792 2.5856 17.0496 3.5328 21.248a25.6 25.6 0 0 0 40.8832 14.5664l2.2016-1.9968c-0.1536 0.1536 0.512-0.4352 2.1248-1.536 3.328-2.3552 7.7312-4.8128 13.2096-7.2192 22.7328-9.9328 54.016-14.592 95.232-10.5472l8.96 1.024c151.168 18.8672 269.2608-195.8144 191.2832-320.5888a25.6 25.6 0 0 0-19.1488-11.904c-187.4944-18.7392-293.1456 48.1792-328.8832 170.3936z m310.4256-120.6272l1.024 2.176c40.832 91.8784-46.9504 242.4064-148.352 229.7344l-10.112-1.152c-43.264-4.2752-79.1808-0.3328-108.0832 9.6l-5.4272 1.9712-0.2048-2.3296c-2.5344-34.6624-0.0768-71.0144 9.856-105.0112 27.5456-94.1824 104.832-146.0736 256.128-135.3984l5.1712 0.4096z" fill="#1afa29" p-id="7087"></path></svg>