<?xml version="1.0" standalone="no"?><!DOCTYPE svg PUBLIC "-//W3C//DTD SVG 1.1//EN" "http://www.w3.org/Graphics/SVG/1.1/DTD/svg11.dtd"><svg t="1628324943238" class="icon" viewBox="0 0 1024 1024" version="1.1" xmlns="http://www.w3.org/2000/svg" p-id="4915" xmlns:xlink="http://www.w3.org/1999/xlink" width="16" height="16"><defs><style type="text/css"></style></defs><path d="M645.819648 395.861333a33.28 33.28 0 0 1-33.399467 33.143467 33.28 33.28 0 0 1-33.416533-33.1264 33.28 33.28 0 0 1 33.416533-33.160533c18.432 0 33.399467 14.848 33.399467 33.160533M420.454315 812.9024a33.28 33.28 0 0 1-33.416534-33.1264 33.28 33.28 0 0 1 33.416534-33.160533 33.28 33.28 0 0 1 33.399466 33.160533 33.28 33.28 0 0 1-33.399466 33.1264m-131.242667-487.850667a33.211733 33.211733 0 0 1-33.399467-33.006933c0-18.244267 14.967467-33.024 33.416534-33.024 18.432 0 33.399467 14.779733 33.399466 33.024A33.211733 33.211733 0 0 1 289.228715 325.034667m644.608-56.439467L516.983381 226.525867c-0.4608-0.0512-0.887467 0.034133-1.3312 0-1.211733-0.119467-2.491733 0.017067-3.720533 0-1.2288 0.017067-2.491733-0.119467-3.703467 0-0.4608 0.034133-0.887467-0.034133-1.348266 0l-161.723734 16.3328A75.1104 75.1104 0 0 0 289.228715 217.941333c-27.6992 0-51.882667 14.967467-64.853334 37.12l-134.3488 13.550934C66.338048 271.0016 48.930048 292.113067 51.370581 315.511467c2.423467 23.415467 23.773867 40.6016 47.445334 38.229333l133.5808-13.499733a75.144533 75.144533 0 0 0 56.832 25.9072 75.144533 75.144533 0 0 0 65.570133-38.263467l23.2448-2.3552v393.181867a73.796267 73.796267 0 0 0-32.5632 61.047466c0 25.309867 12.919467 47.684267 32.5632 61.047467v146.551467c0 14.779733 12.2368 26.862933 27.1872 26.862933h33.0752c14.967467 0 27.1872-12.100267 27.1872-26.862933v-148.514134a73.6768 73.6768 0 0 0 29.917867-59.0848c0-24.132267-11.776-45.533867-29.917867-59.0848v-61.952h92.859733v328.635734c0 14.779733 12.2368 26.862933 27.1872 26.862933h33.092267c14.9504 0 27.170133-12.100267 27.170133-26.862933V461.994667c24.610133-12.168533 41.557333-37.256533 41.557334-66.235734 0-28.996267-16.964267-54.0672-41.557334-66.235733v-3.9936l279.227734 28.194133c23.688533 2.389333 45.038933-14.7968 47.445333-38.212266 2.423467-23.3984-14.967467-44.509867-38.638933-46.8992" fill="#ec5cdd" p-id="4916"></path><path d="M701.218048 884.343467c-8.004267 0-15.735467-4.317867-19.694933-11.844267a21.8112 21.8112 0 0 1 9.472-29.576533c129.450667-66.474667 209.8688-197.2736 209.8688-341.333334 0-33.962667-4.488533-67.669333-13.312-100.164266a21.9136 21.9136 0 0 1 15.650133-26.88 22.2208 22.2208 0 0 1 27.204267 15.479466c9.847467 36.215467 14.848 73.728 14.848 111.547734 0 160.512-89.6 306.2272-233.813334 380.279466a22.186667 22.186667 0 0 1-10.205866 2.491734M814.455381 248.354133c-5.973333 0-11.946667-2.372267-16.3328-7.0656a392.226133 392.226133 0 0 0-146.449066-98.577066 21.845333 21.845333 0 0 1-12.6976-28.3648 22.254933 22.254933 0 0 1 28.706133-12.544 436.923733 436.923733 0 0 1 163.106133 109.755733 21.76 21.76 0 0 1-1.297066 30.993067c-4.266667 3.8912-9.659733 5.802667-15.018667 5.802666M253.320448 202.581333c-6.519467 0-12.970667-2.816-17.3568-8.260266a21.777067 21.777067 0 0 1 3.498667-30.8224 435.131733 435.131733 0 0 1 114.6368-64.989867 22.272 22.272 0 0 1 28.672 12.578133 21.8624 21.8624 0 0 1-12.714667 28.3648 390.485333 390.485333 0 0 0-102.912 58.350934c-4.096 3.2256-8.96 4.778667-13.824 4.778666M322.611115 884.3264c-3.447467 0-6.946133-0.802133-10.222934-2.474667C168.191915 807.765333 78.626048 662.0672 78.626048 501.572267a424.96 424.96 0 0 1 14.848-111.530667c3.1744-11.690667 15.342933-18.602667 27.1872-15.479467 11.844267 3.140267 18.858667 15.189333 15.6672 26.88a381.115733 381.115733 0 0 0-13.312 100.130134c0 144.059733 80.384 274.858667 209.834667 341.333333 10.871467 5.597867 15.121067 18.8416 9.454933 29.5936a22.186667 22.186667 0 0 1-19.694933 11.8272M592.930048 78.677333c0-43.451733-35.6352-78.677333-79.581867-78.677333-43.963733 0-79.598933 35.2256-79.598933 78.677333 0 43.434667 35.6352 78.677333 79.598933 78.677334 43.946667 0 79.581867-35.242667 79.581867-78.677334" fill="#ec5cdd" p-id="4917"></path></svg>