<?xml version="1.0" standalone="no"?><!DOCTYPE svg PUBLIC "-//W3C//DTD SVG 1.1//EN" "http://www.w3.org/Graphics/SVG/1.1/DTD/svg11.dtd"><svg t="1628333336332" class="icon" viewBox="0 0 2003 1024" version="1.1" xmlns="http://www.w3.org/2000/svg" p-id="8676" xmlns:xlink="http://www.w3.org/1999/xlink" width="31.296875" height="16"><defs><style type="text/css"></style></defs><path d="M597.295039 477.757646m-37.775975 455.583106a457.146575 457.146575 0 1 0 75.55195-911.166211 457.146575 457.146575 0 1 0-75.55195 911.166211Z" fill="#92CAEE" p-id="8677"></path><path d="M119.074609 477.859728a484.313072 484.313072 0 0 0 313.819882 449.131937A478.796503 478.796503 0 0 0 1005.680829 228.989632 483.584468 483.584468 0 0 0 506.483432 8.22281c-224.826184 42.467168-383.973978 243.769872-387.408823 469.636918 0 27.166497 41.634479 27.166497 42.154909 0a441.429559 441.429559 0 0 1 289.359626-410.828218 436.121163 436.121163 0 0 1 522.096361 632.844074A439.660094 439.660094 0 0 1 510.855052 905.549909C307.470624 863.91543 164.45619 683.534052 161.229518 477.859728c-0.416345-27.166497-42.675341-27.270583-42.154909 0z" fill="#49494A" p-id="8678"></path><path d="M1584.087823 342.235414s268.334214 1.040862 344.941655 0c39.865013 0.624517 52.667615-24.772515 52.667615-52.771702a54.853425 54.853425 0 0 0-56.726977-52.875788h-62.972149a54.957512 54.957512 0 0 0-56.622891-52.979874h-69.841838a54.957512 54.957512 0 0 0-56.726977 52.979874h-94.614352a54.853425 54.853425 0 0 0-56.726977 52.875788 54.957512 54.957512 0 0 0 56.622891 52.771702z" fill="#ECEBEB" p-id="8679"></path><path d="M1584.087823 363.364912c114.494816 0 229.926408 1.353121 344.941655 0a20.817239 20.817239 0 0 0 20.817239-20.81724l-20.817239 20.81724c56.726977-3.851189 96.59199-59.433218 61.723114-112.725351-28.623704-43.820289-83.268957-35.181134-128.754625-35.181134l20.817239 20.817239c-7.910551-64.325269-57.351494-74.109372-112.72535-74.109372s-104.710714 9.680016-112.621265 74.109372l20.817239-20.817239c-43.820289 0-108.249644-12.073999-144.992071 17.798739-59.12096 47.775564-13.635292 123.238057 50.794064 130.107746 26.958325 2.914413 26.750152-39.344582 0-42.258996-72.339906-7.702379-22.17036-58.600529 5.20431-63.700752a193.912584 193.912584 0 0 1 32.058548 0h57.351494a21.649929 21.649929 0 0 0 20.81724-20.81724c5.828827-47.359219 135.312055-46.110185 140.932709 0a21.649929 21.649929 0 0 0 20.81724 20.81724c14.988412 0 30.289083-1.144948 45.069323 0 35.493393 2.810327 88.681439 58.912787 21.962187 63.492579a21.441756 21.441756 0 0 0-20.817239 20.81724l20.817239-20.81724c-115.015247 1.353121-230.030494 0-344.941655 0-26.437894 0.104086-26.54198 42.363082 0.728604 42.467169z" fill="#49494A" p-id="8680"></path><path d="M1761.658874 932.195975c-44.652978-233.465338-135.312055-374.189876-231.071356-374.189876-31.850376 0-61.827201 18.319171-88.161009 50.481805C1385.283188 305.492986 1255.591787 93.677577 1104.562716 93.677577 979.138849 93.677577 868.391136 239.918683 801.463712 462.871315c-33.307583-65.67839-76.295182-105.231145-123.342143-105.439317-164.664363-0.520431-306.22159 385.118927-340.465948 574.763977H20.817239v70.778613h1960.775768v-70.778613z" fill="#ECEBEB" p-id="8681"></path><path d="M1781.955682 926.367148c-22.898963-114.494816-56.310632-245.643423-139.059158-333.075829-65.470218-69.425493-150.300468-72.860337-215.458427 0l35.285221 9.367758c-24.147998-124.070746-59.849563-249.806871-124.903436-358.889205-41.634479-69.529579-100.755438-140.828624-181.838585-163.935759C945.623094 20.817239 828.005692 305.597073 781.375076 457.250661l38.615979-5.100224c-35.181134-65.574304-92.844887-132.918073-175.281155-111.37223-61.827201 16.13336-107.521041 69.113234-142.910347 119.074609C406.664769 594.124009 347.647896 765.762147 317.671071 926.367148l20.296809-15.508843H20.817239a21.441756 21.441756 0 0 0-20.817239 20.817239v70.778613a21.441756 21.441756 0 0 0 20.817239 20.81724h1960.775768a20.817239 20.817239 0 0 0 20.817239-20.81724v-70.778613a20.817239 20.817239 0 0 0-20.817239-20.817239h-219.934133c-27.166497 0-27.270583 42.258996 0 42.258995h219.934133l-20.81724-20.817239v70.778614l20.81724-20.81724H20.817239l20.81724 20.81724v-70.778614l-20.81724 20.817239h317.150641a21.441756 21.441756 0 0 0 20.817239-15.508843 1314.712746 1314.712746 0 0 1 134.271193-382.620858c29.976825-55.061598 65.886562-114.494816 117.721488-151.237243 75.358406-54.124822 135.312055-1.873552 173.095345 69.529579A21.33767 21.33767 0 0 0 822.280951 468.387884c39.969099-130.107745 154.359829-423.734905 343.484448-339.945518 69.945924 31.225859 117.513316 102.004472 152.17402 167.162432 52.043098 99.090059 82.540354 208.79691 104.086196 318.295588a20.817239 20.817239 0 0 0 35.285221 9.367758C1614.689164 447.570644 1722.62655 843.826794 1741.257979 937.816629c5.308396 26.646066 46.006099 15.404757 40.697703-11.449481z" fill="#49494A" p-id="8682"></path><path d="M470.885952 289.359626a57.663753 57.663753 0 1 1-57.559666-57.663753 57.45558 57.45558 0 0 1 57.559666 57.663753z" fill="#F3D24F" p-id="8683"></path><path d="M449.860541 289.359626c-2.498069 46.734702-72.860337 47.151047-72.860338 0s70.466355-46.838788 72.860338 0c1.457207 26.958325 43.612116 27.166497 42.154909 0a78.689164 78.689164 0 1 0-81.81175 78.480992 80.042285 80.042285 0 0 0 81.81175-78.480992c1.457207-27.166497-40.697703-27.062411-42.154909 0zM1759.056719 416.344786h59.329132c27.166497 0 27.166497-41.634479 0-41.634479H1759.056719c-27.166497 0-27.166497 41.634479 0 41.634479zM1873.551535 416.344786c27.166497 0 27.166497-41.634479 0-41.634479s-27.166497 41.634479 0 41.634479zM1925.594633 416.344786c27.166497 0 27.270583-41.634479 0-41.634479s-27.166497 41.634479 0 41.634479z" fill="#49494A" p-id="8684"></path><path d="M1075.106322 630.866436A241.375889 241.375889 0 0 0 833.730433 872.242326c0 20.817239 0.624517 78.27282 0.83269 130.732262h481.815003V872.242326a241.375889 241.375889 0 0 0-241.271804-241.37589z" fill="#BBBCBE" p-id="8685"></path><path d="M1108.622078 628.264281a237.420614 237.420614 0 0 0-33.515756-2.393982A241.375889 241.375889 0 0 0 833.730433 867.246188c0 20.817239 0.624517 78.27282 0.83269 130.732263h66.927424c0-52.043098-0.728603-110.435454-0.728604-130.732263a241.271803 241.271803 0 0 1 207.860135-238.981907z" fill="#98999C" p-id="8686"></path><path d="M1337.507624 1002.974588c0-94.822525 11.449482-193.496239-44.132548-276.348851a262.297215 262.297215 0 0 0-432.790404-5.516568C801.463712 805.106729 813.01728 905.549909 813.433625 1002.974588c0 27.166497 42.363082 27.166497 41.634478 0 0-78.897337-12.802602-166.537914 27.166498-238.045131a220.246392 220.246392 0 0 1 385.118926 0c39.760927 71.403131 27.791014 159.355967 27.686928 238.045131 0 27.166497 42.258996 27.166497 42.258996 0z" fill="#49494A" p-id="8687"></path><path d="M1027.643017 600.473267a279.159179 279.159179 0 0 1 47.463305-4.059362c27.166497 0 27.270583-42.363082 0-41.634478a347.023379 347.023379 0 0 0-58.704614 5.516568 20.817239 20.817239 0 0 0-14.78024 25.917463 21.649929 21.649929 0 0 0 26.021549 14.78024zM840.808294 727.458427A288.318764 288.318764 0 0 1 957.593007 622.955885c24.35617-12.282171 2.914413-48.71234-20.81724-36.534255a329.953243 329.953243 0 0 0-131.564952 119.699126c-14.676154 23.003049 21.858101 44.236633 36.430169 20.81724zM789.285627 814.578573c27.166497 0 27.166497-42.258996 0-42.258996s-27.270583 42.258996 0 42.258996zM800.110592 947.184387v-75.046148c0-27.166497-42.258996-27.270583-42.258996 0V947.184387c0 27.166497 42.363082 27.270583 42.154909 0z" fill="#49494A" p-id="8688"></path><path d="M834.146778 315.79752a1241.123806 1241.123806 0 0 0-52.771702 141.453141l38.615979-5.100224c-35.181134-65.574304-92.844887-132.918073-175.281155-111.37223-61.827201 16.13336-107.521041 69.113234-142.910347 119.074609C406.664769 594.124009 347.647896 765.762147 317.671071 926.367148l20.296809-15.508843H20.817239a21.441756 21.441756 0 0 0-20.817239 20.817239v70.778613a21.441756 21.441756 0 0 0 20.817239 20.81724h1960.775768a20.817239 20.817239 0 0 0 20.817239-20.81724v-70.778613a20.817239 20.817239 0 0 0-20.817239-20.817239h-219.934133L1781.955682 926.367148c-17.694653-88.993698-42.571254-176.946534-85.246595-257.196991-12.698516-24.043911-49.128685-2.706241-36.430169 20.817239 40.905875 77.336044 64.013011 161.645863 80.979061 247.10063a20.817239 20.817239 0 0 0 20.81724 15.508843h219.934132l-20.817239-20.817239v70.778614l20.817239-20.81724H20.817239l20.81724 20.81724v-70.778614l-20.81724 20.817239h317.150641a21.441756 21.441756 0 0 0 20.817239-15.508843 1314.712746 1314.712746 0 0 1 134.271193-382.620858c29.976825-55.061598 65.886562-114.494816 117.721488-151.237243 75.358406-54.124822 135.312055-1.873552 173.095345 69.529579A21.33767 21.33767 0 0 0 822.280951 468.387884a1147.550315 1147.550315 0 0 1 48.504168-131.35678c10.40862-24.668429-25.397032-46.110185-36.430169-21.33767z" fill="#49494A" p-id="8689"></path><path d="M1655.907298 608.175645c-67.03151-77.960561-156.129295-95.967473-228.989632-14.676153l35.285221 9.367757c-31.954462-167.058345-88.265095-377.000203-232.216304-484.729416s-285.092092 3.643017-362.740395 133.334417c-14.051637 23.315308 22.482618 44.652978 36.430169 21.337671 41.634479-68.800976 101.379955-149.780037 188.604188-157.378329 56.414718-4.892051 106.480179 26.021549 144.679813 64.8457 110.539541 112.100834 156.129295 284.05123 185.065257 433.72718a20.817239 20.817239 0 0 0 35.285221 9.367758c57.871925-64.8457 117.201057-45.277495 168.82781 14.676154 17.694653 20.817239 47.463306-9.367758 29.768652-29.872739z" fill="#49494A" p-id="8690"></path><path d="M1478.023989 528.13336c27.166497 0 27.166497-42.258996 0-42.258995s-27.270583 42.258996 0 42.258995zM1305.86542 169.140069c60.47408 77.336044 99.194145 168.099207 128.962797 260.944094 8.22281 25.709291 49.024598 14.676154 40.697703-11.241309-32.162635-100.235007-74.525717-196.20248-139.787762-279.575523-16.653791-21.33767-46.422444 8.74324-29.872738 29.872738zM526.988412 390.739581c27.166497 0 27.166497-41.634479 0-41.634478s-27.270583 41.634479 0 41.634478zM340.15369 777.419801c36.9506-119.074609 84.517991-236.483838 156.129294-339.008742 15.612929-22.274446-20.817239-43.403944-36.430168-20.817239-73.901199 105.335231-122.821712 226.907908-160.709088 349.105103-8.118723 26.021549 32.683066 37.158772 40.697703 11.241309zM114.494816 924.909941V816.868469c0-27.166497-41.634479-27.166497-41.634479 0v108.041472c0 27.166497 41.634479 27.270583 41.634479 0z" fill="#49494A" p-id="8691"></path><path d="M112.100834 935.526733l61.8272-83.268957c16.237447-21.858101-20.817239-42.883513-36.430169-21.33767l-61.8272 83.268957c-16.237447 21.754015 20.817239 42.883513 36.430169 20.817239z" fill="#49494A" p-id="8692"></path><path d="M112.100834 914.293149l-61.931287-83.268957c-16.029274-21.545843-52.667615 0-36.430169 21.33767l61.931287 83.268957c16.029274 21.649929 52.667615 0.624517 36.430169-20.817239zM1613.856475 561.024598V452.983127c0-27.166497-42.15491-27.270583-42.15491 0V561.024598c0 27.166497 42.15491 27.166497 42.15491 0z" fill="#49494A" p-id="8693"></path><path d="M1611.046148 571.641391l61.8272-83.268958c16.237447-21.754015-20.817239-42.883513-36.430168-20.817239l-61.931287 83.268957c-16.13336 21.858101 20.817239 42.883513 36.534255 21.337671z" fill="#49494A" p-id="8694"></path><path d="M1611.046148 550.30372l-61.931287-83.268957c-16.029274-21.545843-52.667615 0-36.430169 20.817239l61.827201 83.268958c16.13336 21.545843 52.771702 0 36.534255-21.337671zM1899.260825 924.909941V816.868469c0-27.166497-42.15491-27.166497-42.154909 0v108.041472c0 27.166497 42.15491 27.270583 42.154909 0z" fill="#49494A" p-id="8695"></path><path d="M1896.450498 935.526733l61.827201-83.268957c16.237447-21.858101-20.817239-42.883513-36.430169-21.33767l-61.931287 83.268957c-16.13336 21.754015 20.817239 42.883513 36.534255 20.817239z" fill="#49494A" p-id="8696"></path><path d="M1896.450498 914.293149l-61.931287-83.268957c-16.029274-21.545843-52.667615 0-36.430169 21.33767l61.827201 83.268957c16.13336 21.649929 52.771702 0.624517 36.534255-20.817239zM908.25615 679.891035V788.973369c0 27.166497 41.634479 27.270583 41.634478 0V679.891035c0-27.166497-41.634479-27.270583-41.634478 0zM970.395609 648.457003v181.109982c0 27.166497 42.258996 27.270583 42.258996 0V648.457003c0-27.166497-42.258996-27.270583-42.258996 0zM1032.535068 630.76235V811.872332c0 27.166497 42.258996 27.270583 42.258996 0V630.76235c0-27.166497-42.258996-27.166497-42.258996 0zM1094.778614 634.925798v111.892661c0 27.166497 41.634479 27.270583 41.634478 0V634.925798c0-27.166497-41.634479-27.270583-41.634478 0zM1156.918073 656.263468v181.214068c0 27.166497 42.258996 27.166497 42.258996 0V656.263468c0-27.166497-42.258996-27.166497-42.258996 0zM1219.161618 701.540964v196.098394c0 27.166497 42.15491 27.270583 42.15491 0V701.540964c0-27.166497-42.15491-27.166497-42.15491 0zM1115.908111 827.381175c27.166497 0 27.166497-42.258996 0-42.258996s-27.270583 42.258996 0 42.258996zM929.281561 862.458223c27.166497 0 27.270583-41.634479 0-41.634478s-27.166497 41.634479 0 41.634478zM929.281561 910.962391c27.166497 0 27.270583-42.258996 0-42.258996s-27.166497 42.258996 0 42.258996zM454.54442 876.926205H582.8827c27.166497 0 27.270583-42.258996 0-42.258996H454.54442c-27.166497 0-27.166497 42.258996 0 42.258996zM495.138036 822.280951h36.638341a20.817239 20.817239 0 0 0 0-42.258995h-36.638341a20.817239 20.817239 0 0 0 0 42.258995zM582.8827 822.280951c27.166497 0 27.270583-42.258996 0-42.258995S555.716202 822.280951 582.8827 822.280951zM533.129498 767.947957h128.33828c27.166497 0 27.270583-41.634479 0-41.634479H533.129498c-27.166497 0-27.166497 41.634479 0 41.634479zM991.525107 370.026428h128.33828c27.166497 0 27.166497-41.634479 0-41.634478H991.525107c-27.166497 0-27.270583 41.634479 0 41.634478zM1070.110185 310.489124h128.33828c27.166497 0 27.166497-42.258996 0-42.258996h-128.33828c-27.166497 0-27.270583 42.258996 0 42.258996zM1070.110185 425.088026h128.33828c27.166497 0 27.166497-42.258996 0-42.258996h-128.33828c-27.166497 0-27.270583 42.258996 0 42.258996zM1528.60988 941.667819h128.33828c27.166497 0 27.166497-41.634479 0-41.634479h-128.33828c-27.166497 0-27.166497 41.634479 0 41.634479zM1605.425493 882.755032h36.638341a20.817239 20.817239 0 1 0 0-41.634479h-36.638341a20.817239 20.817239 0 1 0 0 41.634479zM1478.648506 827.381175h128.33828c27.166497 0 27.270583-42.258996 0-42.258996h-128.33828c-27.166497 0-27.166497 42.258996 0 42.258996z" fill="#49494A" p-id="8697"></path><path d="M1016.089449 425.088026c27.166497 0 27.166497-42.258996 0-42.258996s-27.270583 42.258996 0 42.258996z" fill="#49494A" p-id="8698"></path></svg>