<?xml version="1.0" standalone="no"?><!DOCTYPE svg PUBLIC "-//W3C//DTD SVG 1.1//EN" "http://www.w3.org/Graphics/SVG/1.1/DTD/svg11.dtd"><svg t="1628324565124" class="icon" viewBox="0 0 1024 1024" version="1.1" xmlns="http://www.w3.org/2000/svg" p-id="3343" data-spm-anchor-id="a313x.7781069.0.i4" width="16" height="16" xmlns:xlink="http://www.w3.org/1999/xlink"><defs><style type="text/css"></style></defs><path d="M918.528 440.17664L583.81312 105.472a97.96608 97.96608 0 0 0-138.5472 0L110.54592 440.17664a98.05824 98.05824 0 0 0 0 138.53184L445.26592 913.408a97.9712 97.9712 0 0 0 138.5472 0l334.71488-334.69952a98.05824 98.05824 0 0 0 0-138.53184z m-283.95008 106.1632H551.424v83.12832a34.304 34.304 0 0 1-68.608 0v-83.12832H399.6928a34.304 34.304 0 1 1 0-68.608H482.816V394.60864a34.304 34.304 0 0 1 68.608 0V477.7472h83.13856a34.304 34.304 0 1 1 0.01536 68.59264z" fill="#3945fd" p-id="3344" data-spm-anchor-id="a313x.7781069.0.i5" class="selected"></path></svg>