<?xml version="1.0" standalone="no"?><!DOCTYPE svg PUBLIC "-//W3C//DTD SVG 1.1//EN" "http://www.w3.org/Graphics/SVG/1.1/DTD/svg11.dtd"><svg t="1628333697530" class="icon" viewBox="0 0 2005 1024" version="1.1" xmlns="http://www.w3.org/2000/svg" p-id="11043" width="250.625" height="128" xmlns:xlink="http://www.w3.org/1999/xlink"><defs><style type="text/css"></style></defs><path d="M1807.333684 911.245319C1666.613472 520.704001 1319.845446 244.391034 913.446992 244.391034S160.280512 520.704001 19.560299 911.245319z" fill="#66C089" p-id="11044"></path><path d="M894.741269 244.391034c-277.737261 94.95291-501.351364 372.215406-607.698623 666.854285h1215.397245C1395.807773 616.60644 1172.47853 339.438896 894.741269 244.391034z" fill="#93C8A5" p-id="11045"></path><path d="M299.861289 826.547323c-11.10949 25.922144-21.649263 52.129147-31.239507 78.621009-8.450809 23.358416 28.485873 33.423424 37.126587 10.254915s17.566288-46.526926 27.346438-69.410577-23.453369-42.159092-33.233518-18.990582zM389.781695 654.682557q-19.845158 31.904178-37.981164 64.852837c-11.869114 21.744216 21.364405 41.209563 33.233518 18.990582s24.592804-43.583386 37.981164-64.852837-20.22497-40.544892-33.233518-18.990582zM528.507896 471.233535q-26.017097 28.485873-50.325042 58.585945a19.940111 19.940111 0 0 0 0 27.251485 18.990582 18.990582 0 0 0 27.251485 0q24.212992-30.005119 50.230089-58.585945c16.711712-18.325912-10.44482-45.577397-27.156532-27.251485zM632.196473 372.482509Q610.167398 390.618515 588.70804 410.273767c-18.230959 16.901618 9.495291 44.05815 27.251486 27.251485 14.053031-13.008549 28.485873-25.637286 43.203574-37.981164a18.990582 18.990582 0 0 0 0-27.156532 19.560299 19.560299 0 0 0-27.251486 0z" fill="#49494A" p-id="11046"></path><path d="M894.741269 252.177172c-121.634677 94.95291-219.721033 364.429268-265.868148 659.068147h532.495918c-46.906737-294.638879-144.89814-564.115237-266.62777-659.068147z" fill="#66C089" p-id="11047"></path><path d="M628.208451 794.928004q-10.065008 50.609901-18.230959 101.599614c-3.893069 24.212992 33.233518 34.657812 37.126588 10.254914Q655.175077 855.887772 665.429992 805.182919c4.842598-24.212992-32.283989-34.562859-37.221541-10.254915zM670.462496 622.968285c-8.545762 29.530355-16.521806 59.345569-23.833181 89.160782-5.88708 24.118039 31.239507 34.372953 37.126588 10.254914q10.919585-44.817773 23.928133-89.160782c6.931562-23.83318-30.289978-33.993142-37.22154-10.254914zM734.55571 444.741673q-25.732239 59.820333-46.242067 121.254866C680.432551 590.019625 717.559139 599.514916 725.440231 576.1565c12.628737-37.981164 26.491862-75.297657 42.348997-111.94948 9.495291-22.50384-23.358416-42.159092-33.233518-18.990582zM777.379472 418.249811c24.782709 0 24.877662-38.550881 0-38.550881s-24.782709 38.550881 0 38.550881z" fill="#49494A" p-id="11048"></path><path d="M69.980294 755.427594A1263.823229 1263.823229 0 0 0 0.949529 910.010931a18.990582 18.990582 0 0 0 18.990582 24.402898h1787.393573a18.990582 18.990582 0 0 0 18.990582-24.402898C1726.718664 640.344667 1529.691376 412.457684 1262.8737 299.368768c-22.598793-9.495291-42.254045 23.643275-18.990582 33.233519 257.607244 109.100893 449.602028 326.827915 545.599419 587.663558l18.990582-24.402898H19.560299L37.981164 920.265845a1199.919921 1199.919921 0 0 1 65.137696-145.372905c11.679208-21.839169-21.554311-41.304516-33.233518-18.990582zM1005.931126 233.851261a931.393092 931.393092 0 0 0-642.166529 180.410528c-19.750205 14.527795-0.569717 47.951219 18.990582 33.233518a899.67882 899.67882 0 0 1 622.701182-174.713353c24.687757 2.373823 24.497851-36.177059 0-38.455929z" fill="#49494A" p-id="11049"></path><path d="M184.018739 356.150608c-82.514079 0-149.45588 73.398599-149.45588 163.888723a176.897271 176.897271 0 0 0 17.566288 77.101762c0.949529 10.919585 100.460179 188.101714 100.460179 188.101714a41.589374 41.589374 0 0 0 62.763873 0S314.863849 608.060678 315.813378 597.141093a175.56793 175.56793 0 0 0 17.566288-77.101762c0-90.490123-66.941801-163.888722-149.360927-163.888723z m0 190.855349a48.425984 48.425984 0 0 1 0-96.377203 48.425984 48.425984 0 0 1 0 96.377203z" fill="#92CAEE" p-id="11050"></path><path d="M184.018739 336.875168C74.443081 341.717766 2.088964 443.697191 17.851147 549.759591c11.299396 75.202705 63.713402 147.556822 99.890461 212.694518 12.72369 22.788698 21.934122 46.147114 49.850278 54.028206 30.66979 8.735668 55.072688-8.070997 70.550012-32.473895a1161.558945 1161.558945 0 0 0 98.086355-185.822845c46.147114-116.032456-20.035064-255.423327-151.924655-261.310407-24.782709-1.139435-24.782709 37.411446 0 37.981164 67.796378 3.038493 118.12142 54.882782 127.996522 120.875054 6.741657 44.912726-8.070997 84.792948-28.485873 123.438782-16.3319 31.714272-33.708283 62.953779-50.989712 94.193287-11.964067 21.744216-22.788698 61.054721-48.900749 61.054721s-37.031635-39.310505-48.995701-61.054721c-17.28143-31.239507-34.562859-62.479015-50.989713-94.193287-18.325912-35.417435-33.138566-72.164211-29.720261-113.183868 5.792127-69.980294 58.301087-128.091475 129.705675-131.319874 24.972615-0.379812 24.972615-38.930693 0.094953-37.791258z" fill="#49494A" p-id="11051"></path><path d="M183.73388 527.825469c-32.283989-1.899058-32.473895-57.921275 0-57.921275s32.283989 56.022217 0 57.921275c-24.592804 1.424294-24.782709 39.975175 0 37.981164A66.467037 66.467037 0 0 0 246.877565 498.864832c0-34.847718-27.061579-67.511519-63.143685-67.511519s-61.529486 31.049601-63.048732 64.852837a66.467037 66.467037 0 0 0 63.048732 70.075248c25.162521 1.519247 25.162521-37.031635 0-38.455929z" fill="#49494A" p-id="11052"></path><path d="M1143.992657 42.046383c-60.864815 0-110.145375 54.123159-110.145376 120.875054a130.560251 130.560251 0 0 0 12.913596 56.971746c0.759623 8.070997 74.06327 138.631248 74.06327 138.631248a30.66979 30.66979 0 0 0 46.242067 0s73.303646-130.560251 73.968316-138.631248a129.325863 129.325863 0 0 0 13.008549-56.971746c0-66.656943-49.28056-120.875054-110.050422-120.875054z m0 140.720212a33.993142 33.993142 0 0 1-32.378942-35.512388 32.473895 32.473895 0 1 1 64.662931 0 33.993142 33.993142 0 0 1-32.473895 35.512388z" fill="#F3D24F" p-id="11053"></path><path d="M1143.992657 22.865895c-107.866505 6.361845-153.633808 119.260855-112.23434 210.985366 15.572277 34.278 35.132577 67.131707 53.363536 100.080366 13.673219 24.687757 24.877662 54.123159 58.870804 54.123159s45.102632-29.625308 58.775851-54.123159c18.230959-32.94866 37.981164-65.802366 53.363535-100.080366 41.399469-91.629558-4.272881-204.623521-112.139386-210.985366-24.782709-1.519247-24.687757 37.031635 0 38.455929 93.813475 5.602222 103.11886 106.916976 68.650953 173.763824-10.349867 19.940111-46.811785 112.89901-68.745906 112.89901s-56.971746-90.300217-66.467037-109.480705c-35.037624-67.22666-30.005119-171.484955 66.467037-177.182129 24.687757-1.424294 24.877662-39.975175 0.094953-38.455929z" fill="#49494A" p-id="11054"></path><path d="M1143.802751 163.491154c-17.28143-0.949529-17.471335-32.473895 0-32.473895s17.186477 31.524366 0 32.473895c-24.687757 1.519247-24.877662 39.975175 0 38.550882a54.218111 54.218111 0 0 0 51.55943-54.787829 51.654383 51.654383 0 1 0-103.11886-1.899058 54.218111 54.218111 0 0 0 51.55943 56.971745c24.687757 1.139435 24.592804-37.316494 0-38.83574zM561.361602 329.943605v-86.597053a19.560299 19.560299 0 0 0-18.990581-18.990582h-62.289109l18.990582 24.402897 65.422554-162.369475H526.988649L585.479642 248.18915c8.355856 23.16851 45.577397 13.198454 37.126587-10.254914L564.115237 75.849619a18.990582 18.990582 0 0 0-37.126588 0L461.566094 238.693859a18.990582 18.990582 0 0 0 18.990582 24.402898h62.289109l-18.990582-18.990582v86.597053c0 24.782709 37.981164 24.782709 38.550881 0zM748.228929 268.983837v-86.502101a19.560299 19.560299 0 0 0-18.990582-18.990582h-62.194156l18.990582 24.307945L751.077516 25.239718h-37.126588l58.490993 162.274523c8.260903 23.16851 45.577397 13.198454 37.126588-10.159962L751.077516 14.984804a18.990582 18.990582 0 0 0-37.126588 0l-65.422554 162.369475a18.990582 18.990582 0 0 0 18.990582 24.307945h62.289108l-18.990582-18.990582v86.502101c0 24.782709 37.981164 24.877662 37.981164 0zM1357.826609 662.468695v-86.502101a19.465346 19.465346 0 0 0-18.990581-18.990582h-62.194156l18.515817 24.402898L1360.675197 419.104387h-37.126588l58.490992 162.369476c8.355856 23.073557 45.577397 13.103502 37.126588-10.254914l-58.490992-162.369476a18.990582 18.990582 0 0 0-37.126588 0L1258.126054 571.029043a18.990582 18.990582 0 0 0 18.990582 24.307945h61.719392l-18.990582-18.990582v86.502101c0 24.782709 37.981164 24.877662 37.981163 0zM1494.748705 845.158094v-86.502101a19.560299 19.560299 0 0 0-18.990582-18.990582h-62.194155l18.515817 24.402898 65.422555-162.369476h-37.126588L1519.246556 763.78345c8.355856 23.073557 45.577397 13.103502 37.126588-10.254914l-58.490993-162.369476a18.990582 18.990582 0 0 0-37.126587 0l-65.422555 162.369476a18.990582 18.990582 0 0 0 18.990582 24.402897h62.194156l-18.990582-18.990582v86.502101c0 24.782709 37.981164 24.877662 38.550881 0z" fill="#49494A" p-id="11055"></path><path d="M1105.726634 851.614891a185.917797 185.917797 0 0 0 66.467037 11.964067c77.481574 0 140.340401-44.72282 140.340401-99.985414 0-51.749336-55.072688-94.383192-125.717653-99.605602a73.303646 73.303646 0 0 0 6.931562-30.859696C1194.03284 577.865653 1131.174014 533.047879 1053.977298 533.047879s-140.530306 44.817773-140.530306 100.080367c0 51.844289 55.072688 94.383192 125.622699 99.320744a74.632987 74.632987 0 0 0-6.836609 30.859695 81.374644 81.374644 0 0 0 24.212992 56.212123" fill="#92CAEE" p-id="11056"></path><path d="M1100.69413 870.130709c75.012799 25.732239 190.760396 12.72369 224.373726-71.689447 35.987153-90.205264-63.808355-145.277952-137.966578-153.633808l18.990582 24.307945c46.906737-138.34639-152.874185-182.879304-245.548225-132.934074-44.343009 24.023086-77.386621 71.404588-62.00425 123.438783 17.9461 60.579956 84.128278 85.457619 140.910118 92.104322l-18.990582-24.307945c-13.768172 40.639845-4.747645 73.493552 22.218981 105.777542 15.952089 18.990582 43.108621-8.355856 27.251485-27.251485a63.713402 63.713402 0 0 1-12.343878-68.366095 19.465346 19.465346 0 0 0-18.990582-24.307945c-38.645834-4.367834-91.439652-21.269452-103.78353-63.903308s24.307945-72.828882 59.345568-86.407148c63.333591-24.497851 206.997343-1.804105 173.953731 95.712533a19.465346 19.465346 0 0 0 18.990582 24.402898c57.731369 6.551751 144.803187 58.301087 88.1163 122.584206-39.50041 44.817773-112.519198 44.912726-164.363487 27.156532-23.453369-8.070997-33.518377 29.150543-10.159961 37.126588zM1728.142958 660.854496c24.782709 0 24.782709-38.550881 0-38.550882s-24.877662 38.550881 0 38.550882zM1580.965947 495.066715q44.72282 45.67235 84.792949 94.95291c15.572277 18.990582 42.633856-8.16595 27.251485-27.251485q-40.165081-49.660372-84.792948-94.95291c-17.376382-17.756194-44.627868 9.495291-27.251486 27.156532zM1455.912965 384.446575q43.678338 33.803236 84.223231 71.309636c18.136006 16.711712 45.482444-10.44482 27.156532-27.251485-29.435402-27.156532-60.200145-52.793818-91.914416-77.291669-19.655252-15.097513-38.83574 18.325912-18.990582 33.233518z" fill="#49494A" p-id="11057"></path></svg>